# xmcd
#
# Track frame offsets:
#	182
#	11745
#	25995
#	38092
#	50650
#	63182
#	71257
#	83017
#	93335
#	105795
#	118255
#	127387
#	138570
#	150700
#
# Disc length: 2307
#
# Revision: 3
# Processed by: cddbd v1.5.1PL0 Copyright (c) Steve Scherf et al.
# Submitted via: tcd 2.0b
# Normalized: r1:TDELIM( - ),TSWAP
#
DISCID=b809010e
DTITLE=United States Academic Decathlon 2001-2002 - Various - Country Premium
DYEAR=1900
DGENRE=
TTITLE0=Mrs. Texas Gladden - The House Carpenter
TTITLE1=Alexander Campbell "Eck" Robertson - Sallie Gooden
TTITLE2=Johnny Lee Moore And 12 Missisippi Peniteniary Convicts - Eighteen Hammers
TTITLE3=The Carter Family - Single Girl, Married Girl
TTITLE4=Jimmie Rodgers - Waiting For A Train
TTITLE5=Roy Rogers And The Sons Of The Pioneers - A Cowboy Has To Sing
TTITLE6=Bob Wills And His Texas Playboys - New San Antonio Rose
TTITLE7=Bill Monroe And His Blue Grass Boys - Bluegrass Breakdown
TTITLE8=Hank Williams, Sr. - Lovesick Blues
TTITLE9=Johnny Cash - I Walk The Line
TTITLE10=Patsy Cline - Walkin' After Midnight
TTITLE11=Buck Owens - Excuse Me (I Think I've Got A Heartache)
TTITLE12=Gram Parsons - Still Feeling Blue
TTITLE13=Iris DeMent - Our Town
EXTD=
EXTT0=
EXTT1=
EXTT2=
EXTT3=
EXTT4=
EXTT5=
EXTT6=
EXTT7=
EXTT8=
EXTT9=
EXTT10=
EXTT11=
EXTT12=
EXTT13=
PLAYORDER=
